<?xml version="1.0" encoding="UTF-8"?> <svg xmlns="http://www.w3.org/2000/svg" xmlns:xlink="http://www.w3.org/1999/xlink" id="Layer_1" version="1.1" viewBox="0 0 242 90"><defs><style> .st0 { fill: url(#linear-gradient1); } .st1 { fill: url(#linear-gradient); } .st2 { fill: #fff; } </style><linearGradient id="linear-gradient" x1="181.4" y1="26.6" x2="223.7" y2="73.5" gradientTransform="translate(0 88) scale(1 -1)" gradientUnits="userSpaceOnUse"><stop offset="0" stop-color="#6633da"></stop><stop offset=".4" stop-color="#467ccd"></stop><stop offset=".8" stop-color="#2cbac3"></stop><stop offset="1" stop-color="#22d2bf"></stop></linearGradient><linearGradient id="linear-gradient1" x1="189.8" y1="37.8" x2="217.6" y2="37.8" gradientTransform="translate(0 88) scale(1 -1)" gradientUnits="userSpaceOnUse"><stop offset="0" stop-color="#951690"></stop><stop offset=".3" stop-color="#7a1b9a"></stop><stop offset="1" stop-color="#3729b6"></stop><stop offset="1" stop-color="#332ab8"></stop></linearGradient></defs><g><path class="st2" d="M29.2,41.3H11.6c.5,3.4,2.6,6,6.8,6s3.9-.6,4.8-2.1h5.5c-1.4,4.1-5.4,6.4-10.3,6.4-7.1,0-11.8-5.1-11.8-11.8s4.7-11.8,11.6-11.8,12.1,5.7,11.1,13.2h0ZM11.7,37.8h12.6c-.3-3.7-2.7-5.6-6.1-5.6s-5.9,2.5-6.4,5.6Z"></path><path class="st2" d="M67.1,51h-5.1v-21.1l-9.6,15.7h-3.2l-9.7-15.8v21.3c0,0-5.1,0-5.1,0V18.6h3.7l12.6,20.6,12.6-20.6h3.7v32.5h0Z"></path><path class="st2" d="M95,41.3h-17.6c.5,3.4,2.6,6,6.8,6s3.9-.6,4.8-2.1h5.5c-1.4,4.1-5.4,6.4-10.3,6.4-7.1,0-11.8-5.1-11.8-11.8s4.7-11.8,11.6-11.8,12.1,5.7,11.1,13.2h0ZM77.6,37.8h12.6c-.3-3.7-2.7-5.6-6.1-5.6s-5.9,2.5-6.4,5.6h0Z"></path><path class="st2" d="M112.7,28.1v4.7c-3.6.1-6.3,1.5-8.3,4.1v14.1h-5v-22.4h5v3.1c2-2.2,4.8-3.5,8.3-3.5Z"></path><path class="st2" d="M138.1,28.6v23c0,6.8-4.6,10.9-11.3,10.9s-10.9-3.7-11.6-9h5.1c.4,2.7,2.8,4.6,6.5,4.6s6.4-2.3,6.4-6.4v-3.5c-1.9,1.5-4.4,2.3-7.3,2.3-6.3,0-11.3-5.1-11.3-11.1s5-11.3,11.3-11.3,5.4.9,7.3,2.3v-1.8h4.9,0ZM133.2,42.7v-7c-1.7-2.5-4.1-3.5-6.6-3.5-4.2,0-7,2.9-7,7.1s2.9,6.8,7,6.8,4.9-1,6.6-3.4h0Z"></path><path class="st2" d="M165.1,41.3h-17.6c.5,3.4,2.6,6,6.8,6s3.9-.6,4.8-2.1h5.5c-1.4,4.1-5.4,6.4-10.3,6.4-7.1,0-11.8-5.1-11.8-11.8s4.7-11.8,11.6-11.8,12.1,5.7,11.1,13.2h0ZM147.6,37.8h12.6c-.3-3.7-2.7-5.6-6.1-5.6s-5.9,2.5-6.4,5.6Z"></path></g><g><path class="st2" d="M81.2,74.8h-10.2l-2.4,5.5h-2.5l8.9-19.7h2.2l8.9,19.7h-2.5l-2.4-5.5h0ZM80.3,72.8l-4.2-9.4-4.2,9.4h8.4,0Z"></path><path class="st2" d="M109.5,72.4v7.9h-2.2v-7.9c0-2.7-1.4-3.8-3.6-3.8s-3.1.6-4.2,2.3c0,.4.1.9.1,1.4v8h-2.2v-8c0-2.6-1.4-3.7-3.5-3.7s-3.2.7-4.2,2.2v9.5h-2.2v-13.4h2.2v1.4c1.1-1.1,2.5-1.8,4.4-1.8s3.6.7,4.6,2.2c1.3-1.4,2.9-2.2,5.1-2.2,3.4,0,5.6,2,5.6,5.8h0Z"></path><path class="st2" d="M124.7,74.3h-11.2c.3,2.5,1.9,4.4,4.8,4.4s3-.6,3.6-1.7h2.5c-.8,2.3-3.2,3.7-6.1,3.7-4.2,0-7-3.1-7-7.1s2.9-7.1,6.9-7.1,7,3.3,6.6,7.7ZM113.5,72.7h9c-.1-2.6-1.8-4.2-4.4-4.2s-4.3,1.9-4.6,4.2h0Z"></path><path class="st2" d="M134.8,66.6v2.1c-2.2,0-4,1.1-5.2,2.9v8.7h-2.2v-13.4h2.2v2.2c1.3-1.6,3-2.5,5.2-2.5h0Z"></path><path class="st2" d="M136.2,61.9c0-.8.6-1.5,1.5-1.5s1.5.6,1.5,1.5-.6,1.4-1.5,1.4-1.5-.6-1.5-1.4ZM138.8,66.9v13.4h-2.2v-13.4h2.2Z"></path><path class="st2" d="M151.7,75.7h2.3c-.5,2.9-3.1,4.9-6.3,4.9s-7-3.1-7-7.1,2.9-7.1,7-7.1,5.8,2,6.3,4.9h-2.3c-.4-1.8-1.9-2.9-4.1-2.9s-4.8,2.2-4.8,5,1.9,5,4.8,5,3.6-1.1,4.1-2.9h0Z"></path><path class="st2" d="M168.9,66.9v13.4h-2.2v-1.4c-1.2,1.1-2.8,1.7-4.7,1.7-3.9,0-6.9-3.1-6.9-7.1s3.1-7.1,6.9-7.1,3.5.6,4.7,1.7v-1.4h2.2ZM166.7,76.3v-5.5c-1.1-1.6-2.7-2.3-4.4-2.3-2.9,0-5,2.2-5,5s2.2,5,5,5,3.3-.6,4.4-2.3h0Z"></path><path class="st2" d="M176.6,78.9c2.1,0,3.5-.8,3.5-2.1s-.9-1.8-2.2-2l-3-.5c-2.2-.4-4-1.3-4-3.6s2.2-4,5.5-4,5.6,1.1,5.8,4.2h-2c-.2-1.7-1.6-2.5-3.8-2.5s-3.2.8-3.2,2,.6,1.7,2.5,2l2.7.4c1.9.3,4,1.2,4,3.8s-2.4,4.1-5.7,4.1-5.8-1.4-6.2-4.6h2c.4,1.8,1.8,2.8,4.2,2.8h0Z"></path></g><g><path class="st1" d="M174.7,55.3c.2.2.4.3.6.4.8.5,25.7,14.2,25.7,14.2,1,.5,2.5.5,3.4,0l25.6-14.1c.9-.6,1.6-1.9,1.6-2.9v-29.8c0-1.1-.8-2.4-1.8-2.9l-25.7-14.2c-1-.5-2.5-.5-3.4,0l-25.7,14.2c-.9.6-1.6,1.9-1.6,3v29.7c0,.7.2,1.3.5,1.7l.7.8h0Z"></path><path class="st0" d="M217.3,47.7c-1.6,2.4-3.6,4.3-6.1,5.7-2.6,1.4-5.3,2.1-8.2,2-4.8,0-8.7-1.9-12-5.3-.4-.4-.8-.9-1.1-1.3l3.1-1.7c.3.3.5.6.8.9,2.6,2.6,5.7,4,9.3,4,2.3,0,4.5-.5,6.6-1.6s3.6-2.6,4.9-4.6c.6-1,1.3-1.1,2.3-.5,1,.7,1.1,1.5.5,2.5"></path><path class="st2" d="M190.4,43c-.3-1-.6-2.1-.8-3.2-.3-3.3.4-9.5,5-12.9,2.6-1.9,5.4-3.1,8.7-3.1s6.1,1.2,8.6,3.4c.4.3.8.7,1.1,1.2l-22.7,14.7h0ZM174.6,55.2c.3-.1.8-.3,1.3-.6,1.1-.6,2.2-1.3,3.3-1.9,1.3-.8,2.6-1.6,4-2.3,1.1-.6,2.3-1.3,3.3-1.9.5-.3,1-.6,1.4-.8l28.8-17.9h0s.1-.1.1-.1c.3-.2.6-.5.5-.8,0,0-.1-.3-.3-.5s-.2-.4-.6-1c-.3-.4-1-1.3-1.6-1.9-3.2-3.2-7.1-4.8-11.7-4.9-4.6,0-8.6,1.6-12,5-3.4,3.4-5.1,7.5-5.2,12.4,0,2.6.4,5,1.3,7.2l-.6.4c-.4.3-.8.5-1.1.8-1,.7-2,1.4-3,2.2-1.3.9-2.5,1.8-3.8,2.7-1.1.8-2.2,1.6-3.3,2.3-.3.3-1.5,1-1.6,1.2l.6.7h0ZM217.3,47.7c.6-1,.4-1.8-.5-2.5-1-.6-1.7-.4-2.3.5-1.2,1.9-2.9,3.5-4.9,4.6-2,1.1-4.2,1.6-6.6,1.6-3.6,0-6.8-1.4-9.3-4-.3-.3-.5-.6-.8-.9l-3.1,1.7c.3.4.7.9,1.1,1.3,3.3,3.5,7.3,5.2,12,5.3,2.9,0,5.6-.6,8.2-2s4.6-3.3,6.1-5.7"></path></g></svg> 