<?xml version="1.0" encoding="UTF-8"?>
<svg id="Layer_2" data-name="Layer 2" xmlns="http://www.w3.org/2000/svg" viewBox="0 0 360 73.34">
  <defs>
    <style>
      .cls-1, .cls-2 {
        fill: #0273eb;
      }

      .cls-2 {
        fill-rule: evenodd;
      }
    </style>
  </defs>
  <g id="Layer_1-2" data-name="Layer 1">
    <g id="Full_Logo" data-name="Full Logo">
      <path id="Path" class="cls-2" d="M46.93,31.25c0,5.02-4.07,9.14-9.15,9.14s-9.15-4.06-9.15-9.14,4.12-9.14,9.15-9.14,9.15,4.06,9.15,9.14"/>
      <path id="Path-2" data-name="Path" class="cls-2" d="M38.74,0C17.34,0,0,11.79,0,26.34c0,8.97,6.61,16.87,16.66,21.61l1.36-6.43c-6.1-3.67-9.94-9.14-9.94-15.23,0-11,12.54-19.91,27.95-19.91s27.95,8.91,27.95,19.91-12.54,19.91-27.95,19.91c-3.39,0-6.61-.45-9.54-1.24l-6.1,28.38,17.51-20.59h.85c21.4,0,38.74-11.79,38.74-26.34S60.14,0,38.74,0"/>
      <path id="Shape" class="cls-2" d="M354.81,49.29c2.85,0,5.19,2.25,5.19,5.19s-2.25,5.19-5.19,5.19-5.19-2.25-5.19-5.19,2.25-5.19,5.19-5.19M354.81,58.46c2.16,0,3.98-1.81,3.98-3.98s-1.82-3.98-3.98-3.98-3.98,1.81-3.98,3.98,1.82,3.98,3.98,3.98M354.03,57.16h-1.47v-5.36h2.6c.35,0,2.08,0,2.08,1.64,0,1.04-.69,1.3-1.04,1.47l1.04,2.33h-1.47l-.87-1.99h-.87v1.9h0ZM354.03,54.13h.69c.35,0,1.04-.09,1.04-.78,0-.35-.26-.52-.95-.52h-.78v1.3Z"/>
      <rect id="Rectangle" class="cls-1" x="92.33" y="20.65" width="8.13" height="40.62"/>
      <path id="Path-3" data-name="Path" class="cls-2" d="M107.13,31.31h7.4v4.06h.11c2.43-3.44,5.76-4.8,9.83-4.8,7.12,0,10.22,5.02,10.22,11.73v18.9h-7.79v-16.02c0-3.67-.06-8.63-5.08-8.63-5.65,0-6.89,6.09-6.89,9.93v14.67h-7.79v-29.84h0Z"/>
      <polygon id="Path-4" data-name="Path" class="cls-2" points="143.44 61.26 143.44 37.01 137.68 37.01 137.68 31.31 143.44 31.31 143.44 25.33 151.29 22.79 151.29 31.31 158.18 31.31 158.18 37.01 151.29 37.01 151.29 61.26 143.44 61.26"/>
      <path id="Shape-2" data-name="Shape" class="cls-2" d="M185.96,59.57c-2.88,1.58-6.1,2.37-10.33,2.37-9.88,0-15.7-5.7-15.7-15.51,0-8.69,4.63-15.85,13.95-15.85,11.12,0,14.29,7.62,14.29,18.11h-20.73c.34,4.85,3.73,7.56,8.58,7.56,3.78,0,7.06-1.41,9.94-3.05v6.37ZM180.71,43.38c-.23-3.78-1.98-7.05-6.32-7.05s-6.61,3.05-6.95,7.05h13.27Z"/>
      <rect id="Rectangle-2" data-name="Rectangle" class="cls-1" x="192.57" y="17.66" width="7.79" height="43.66"/>
      <path id="Shape-3" data-name="Shape" class="cls-2" d="M230.91,59.57c-2.88,1.58-6.1,2.37-10.33,2.37-9.88,0-15.7-5.7-15.7-15.51,0-8.69,4.63-15.85,13.95-15.85,11.12,0,14.29,7.62,14.29,18.11h-20.73c.34,4.85,3.73,7.56,8.58,7.56,3.78,0,7.06-1.41,9.94-3.05v6.37ZM225.66,43.38c-.23-3.78-1.98-7.05-6.32-7.05s-6.61,3.05-6.95,7.05h13.27Z"/>
      <path id="Shape-4" data-name="Shape" class="cls-2" d="M238.65,20.53h10.33c8.87,0,16.94,2.54,16.94,12.3s-6.95,12.92-15.7,12.92h-3.44v15.4h-8.13V20.53ZM246.84,39.32h2.88c4.07,0,7.74-1.35,7.74-6.04s-3.56-6.32-7.74-6.32h-2.88v12.35Z"/>
      <path id="Shape-5" data-name="Shape" class="cls-2" d="M293.99,59.74c-2.88,1.58-6.1,2.37-10.33,2.37-9.88,0-15.7-5.7-15.7-15.57,0-8.69,4.57-15.85,13.95-15.85,11.12,0,14.29,7.62,14.29,18.11h-20.73c.34,4.85,3.73,7.56,8.58,7.56,3.78,0,7.06-1.41,9.94-3.05v6.43ZM288.74,43.49c-.23-3.78-1.98-7.05-6.32-7.05s-6.61,3.05-6.95,7.05h13.27Z"/>
      <path id="Shape-6" data-name="Shape" class="cls-2" d="M325.5,59.74c-2.88,1.58-6.1,2.37-10.33,2.37-9.88,0-15.7-5.7-15.7-15.57,0-8.69,4.63-15.85,13.95-15.85,11.12,0,14.29,7.62,14.29,18.11h-20.73c.34,4.85,3.73,7.56,8.58,7.56,3.78,0,7.06-1.41,9.94-3.05v6.43h0ZM320.25,43.49c-.23-3.78-1.98-7.05-6.32-7.05s-6.61,3.05-6.95,7.05h13.27Z"/>
      <path id="Path-5" data-name="Path" class="cls-2" d="M332,31.42h6.95v6.83h.11c.34-2.82,3.56-7.5,8.19-7.5.73,0,1.58,0,2.37.23v7.84c-.68-.39-2.09-.62-3.5-.62-6.32,0-6.32,7.9-6.32,12.24v11h-7.79v-30.01Z"/>
    </g>
  </g>
</svg>